<svg xmlns="http://www.w3.org/2000/svg" viewBox="0 0 1200 800">
  <defs>
    <linearGradient id="bgGradient" x1="0" y1="0" x2="1" y2="1">
      <stop offset="0%" stop-color="#dbeafe"/>
      <stop offset="100%" stop-color="#e0f2fe"/>
    </linearGradient>
    <linearGradient id="deskGrad" x1="0" y1="0" x2="1" y2="0">
      <stop offset="0%" stop-color="#64748b"/>
      <stop offset="100%" stop-color="#1e293b"/>
    </linearGradient>
  </defs>
  <rect width="1200" height="800" fill="url(#bgGradient)"/>
  <circle cx="900" cy="120" r="95" fill="#bfdbfe" opacity="0.65"/>
  <circle cx="1020" cy="190" r="55" fill="#93c5fd" opacity="0.4"/>
  <rect x="150" y="420" width="880" height="260" rx="18" fill="#f8fafc" stroke="#cbd5e1" stroke-width="2"/>
  <rect x="200" y="480" width="700" height="180" rx="20" fill="#ffffff"/>
  <polygon points="200,660 420,660 400,720 220,720" fill="#cbd5e1"/>
  <rect x="560" y="320" width="320" height="260" rx="18" fill="#e2e8f0"/>
  <rect x="600" y="380" width="240" height="160" rx="12" fill="#0f172a"/>
  <rect x="620" y="400" width="200" height="8" rx="4" fill="#94a3b8"/>
  <rect x="620" y="420" width="180" height="8" rx="4" fill="#94a3b8"/>
  <rect x="620" y="440" width="150" height="8" rx="4" fill="#94a3b8"/>
  <circle cx="790" cy="572" r="12" fill="#cbd5e1"/>
  <rect x="310" y="240" width="240" height="320" rx="120" fill="#fde68a"/>
  <path d="M330 240 C330 190 420 160 470 240" fill="#fbbf24" opacity="0.3"/>
  <circle cx="435" cy="250" r="68" fill="#fb7185"/>
  <circle cx="435" cy="250" r="56" fill="#fcd34d"/>
  <circle cx="415" cy="238" r="12" fill="#1e293b"/>
  <circle cx="455" cy="238" r="12" fill="#1e293b"/>
  <path d="M425 275 Q435 290 445 275" stroke="#1e293b" stroke-width="6" fill="none" stroke-linecap="round"/>
  <path d="M325 410 C330 320 540 320 545 410 Z" fill="#c7d2fe"/>
  <rect x="360" y="360" width="150" height="84" rx="42" fill="#1e293b"/>
  <path d="M380 360 C360 320 410 280 460 360" fill="#1e293b" opacity="0.25"/>
  <path d="M385 420 q60 70 130 0" fill="#f8fafc"/>
  <path d="M390 430 q55 30 120 0" fill="#e2e8f0"/>
  <rect x="310" y="470" width="260" height="24" rx="12" fill="#f9fafb"/>
  <rect x="375" y="460" width="90" height="12" rx="6" fill="#94a3b8"/>
  <rect x="430" y="460" width="80" height="12" rx="6" fill="#94a3b8"/>
  <path d="M450 520 q60 40 80 0" stroke="#0f172a" stroke-width="10" fill="none" stroke-linecap="round"/>
  <line x1="505" y1="500" x2="505" y2="540" stroke="#0f172a" stroke-width="10" stroke-linecap="round"/>
  <line x1="380" y1="520" x2="330" y2="520" stroke="#475569" stroke-width="20" stroke-linecap="round"/>
  <rect x="510" y="560" width="280" height="44" rx="20" fill="url(#deskGrad)"/>
  <rect x="560" y="536" width="200" height="80" rx="16" fill="#0f172a"/>
  <circle cx="660" cy="512" r="10" fill="#94a3b8"/>
  <rect x="570" y="614" width="120" height="16" rx="8" fill="#94a3b8"/>
  <path d="M190 685 C210 645 270 640 321 662" stroke="#64748b" stroke-width="18" fill="none" stroke-linecap="round"/>
  <path d="M870 670 q60 -30 120 0" stroke="#94a3b8" stroke-width="16" fill="none" stroke-linecap="round"/>
</svg>
